REM DIRINDEX 1\2\4,1\2\5,1\2\6,1\3\7,1\3\8
REM DIRNAME folder01,folder02,folder03,folder04,folder05,folder06,folder07,folder08
TITLE ""
FILE "034_Lesson 29_Output_Stage.mp3" MP3
  TRACK 01 AUDIO
    TITLE "0:"
    INDEX 01 00:00:00
  TRACK 02 AUDIO
    TITLE "6:cjc128_2077"
    INDEX 01 00:00:21
  TRACK 03 AUDIO
    TITLE "0:"
    INDEX 01 00:03:37
  TRACK 04 AUDIO
    TITLE "6:cjc128_2078"
    INDEX 01 00:04:35
  TRACK 05 AUDIO
    TITLE "0:"
    INDEX 01 00:06:28
  TRACK 06 AUDIO
    TITLE "4:cjc128_2079"
    INDEX 01 00:07:03
  TRACK 07 AUDIO
    TITLE "0:"
    INDEX 01 00:10:06
  TRACK 08 AUDIO
    TITLE "5:cjc128_2080"
    INDEX 01 00:13:67
  TRACK 09 AUDIO
    TITLE "0:"
    INDEX 01 00:17:25
  TRACK 10 AUDIO
    TITLE "6:cjc128_2081"
    INDEX 01 00:17:70
  TRACK 11 AUDIO
    TITLE "0:"
    INDEX 01 00:19:65
  TRACK 12 AUDIO
    TITLE "4:cjc128_2082"
    INDEX 01 00:20:45
  TRACK 13 AUDIO
    TITLE "0:"
    INDEX 01 00:24:37
  TRACK 14 AUDIO
    TITLE "5:cjc128_2083"
    INDEX 01 00:28:59
  TRACK 15 AUDIO
    TITLE "0:"
    INDEX 01 00:32:25
  TRACK 16 AUDIO
    TITLE "6:cjc128_2084"
    INDEX 01 00:33:03
  TRACK 17 AUDIO
    TITLE "0:"
    INDEX 01 00:35:00
  TRACK 18 AUDIO
    TITLE "4:cjc128_2085"
    INDEX 01 00:35:53
  TRACK 19 AUDIO
    TITLE "0:"
    INDEX 01 00:38:61
  TRACK 20 AUDIO
    TITLE "5:cjc128_2086"
    INDEX 01 00:42:68
  TRACK 21 AUDIO
    TITLE "0:"
    INDEX 01 00:46:37
  TRACK 22 AUDIO
    TITLE "6:cjc128_2087"
    INDEX 01 00:47:13
  TRACK 23 AUDIO
    TITLE "0:"
    INDEX 01 00:49:10
  TRACK 24 AUDIO
    TITLE "4:cjc128_2088"
    INDEX 01 00:49:72
  TRACK 25 AUDIO
    TITLE "0:"
    INDEX 01 00:53:15
  TRACK 26 AUDIO
    TITLE "5:cjc128_2089"
    INDEX 01 00:56:72
  TRACK 27 AUDIO
    TITLE "0:"
    INDEX 01 01:00:19
  TRACK 28 AUDIO
    TITLE "6:cjc128_2090"
    INDEX 01 01:00:70
  TRACK 29 AUDIO
    TITLE "0:"
    INDEX 01 01:02:65
  TRACK 30 AUDIO
    TITLE "4:cjc128_2091"
    INDEX 01 01:03:55
  TRACK 31 AUDIO
    TITLE "0:"
    INDEX 01 01:07:17
  TRACK 32 AUDIO
    TITLE "5:cjc128_2092"
    INDEX 01 01:10:57
  TRACK 33 AUDIO
    TITLE "0:"
    INDEX 01 01:13:67
  TRACK 34 AUDIO
    TITLE "6:cjc128_2093"
    INDEX 01 01:14:41
  TRACK 35 AUDIO
    TITLE "0:"
    INDEX 01 01:16:40
  TRACK 36 AUDIO
    TITLE "4:cjc128_2094"
    INDEX 01 01:17:10
  TRACK 37 AUDIO
    TITLE "0:"
    INDEX 01 01:21:16
  TRACK 38 AUDIO
    TITLE "5:cjc128_2095"
    INDEX 01 01:25:49
  TRACK 39 AUDIO
    TITLE "0:"
    INDEX 01 01:29:25
  TRACK 40 AUDIO
    TITLE "6:cjc128_2096"
    INDEX 01 01:30:11
  TRACK 41 AUDIO
    TITLE "0:"
    INDEX 01 01:32:04
  TRACK 42 AUDIO
    TITLE "4:cjc128_2097"
    INDEX 01 01:32:55
  TRACK 43 AUDIO
    TITLE "0:"
    INDEX 01 01:35:67
  TRACK 44 AUDIO
    TITLE "5:cjc128_2098"
    INDEX 01 01:39:39
  TRACK 45 AUDIO
    TITLE "0:"
    INDEX 01 01:42:28
  TRACK 46 AUDIO
    TITLE "6:cjc128_2099"
    INDEX 01 01:43:21
  TRACK 47 AUDIO
    TITLE "0:"
    INDEX 01 01:45:16
  TRACK 48 AUDIO
    TITLE "4:cjc128_2100"
    INDEX 01 01:45:53
  TRACK 49 AUDIO
    TITLE "0:"
    INDEX 01 01:49:63
  TRACK 50 AUDIO
    TITLE "5:cjc128_2101"
    INDEX 01 01:54:25
  TRACK 51 AUDIO
    TITLE "0:"
    INDEX 01 01:58:29
  TRACK 52 AUDIO
    TITLE "6:cjc128_2102"
    INDEX 01 01:58:74
  TRACK 53 AUDIO
    TITLE "0:"
    INDEX 01 02:00:45
  TRACK 54 AUDIO
    TITLE "4:cjc128_2103"
    INDEX 01 02:01:27
  TRACK 55 AUDIO
    TITLE "0:"
    INDEX 01 02:05:15
  TRACK 56 AUDIO
    TITLE "5:cjc128_2104"
    INDEX 01 02:09:52
  TRACK 57 AUDIO
    TITLE "0:"
    INDEX 01 02:13:40
  TRACK 58 AUDIO
    TITLE "6:cjc128_2105"
    INDEX 01 02:14:26
  TRACK 59 AUDIO
    TITLE "0:"
    INDEX 01 02:16:26
  TRACK 60 AUDIO
    TITLE "4:cjc128_2106"
    INDEX 01 02:17:02
  TRACK 61 AUDIO
    TITLE "0:"
    INDEX 01 02:20:69
  TRACK 62 AUDIO
    TITLE "5:cjc128_2107"
    INDEX 01 02:24:08
  TRACK 63 AUDIO
    TITLE "0:"
    INDEX 01 02:26:70
  TRACK 64 AUDIO
    TITLE "6:cjc128_2108"
    INDEX 01 02:27:44
  TRACK 65 AUDIO
    TITLE "0:"
    INDEX 01 02:29:43
  TRACK 66 AUDIO
    TITLE "4:cjc128_2109"
    INDEX 01 02:30:21
  TRACK 67 AUDIO
    TITLE "0:"
    INDEX 01 02:33:11
  TRACK 68 AUDIO
    TITLE "5:cjc128_2110"
    INDEX 01 02:36:31
  TRACK 69 AUDIO
    TITLE "0:"
    INDEX 01 02:39:10
  TRACK 70 AUDIO
    TITLE "6:cjc128_2111"
    INDEX 01 02:39:53
  TRACK 71 AUDIO
    TITLE "0:"
    INDEX 01 02:41:48
  TRACK 72 AUDIO
    TITLE "4:cjc128_2112"
    INDEX 01 02:42:32
  TRACK 73 AUDIO
    TITLE "0:"
    INDEX 01 02:45:34
  TRACK 74 AUDIO
    TITLE "5:cjc128_2113"
    INDEX 01 02:48:70
  TRACK 75 AUDIO
    TITLE "0:"
    INDEX 01 02:51:52
  TRACK 76 AUDIO
    TITLE "6:cjc128_2114"
    INDEX 01 02:52:44
  TRACK 77 AUDIO
    TITLE "0:"
    INDEX 01 02:54:37
  TRACK 78 AUDIO
    TITLE "4:cjc128_2115"
    INDEX 01 02:55:17
  TRACK 79 AUDIO
    TITLE "0:"
    INDEX 01 02:58:66
  TRACK 80 AUDIO
    TITLE "5:cjc128_2116"
    INDEX 01 03:03:18
  TRACK 81 AUDIO
    TITLE "0:"
    INDEX 01 03:07:18
  TRACK 82 AUDIO
    TITLE "6:cjc128_2117"
    INDEX 01 03:07:65
  TRACK 83 AUDIO
    TITLE "0:"
    INDEX 01 03:09:60
  TRACK 84 AUDIO
    TITLE "4:cjc128_2118"
    INDEX 01 03:10:59
  TRACK 85 AUDIO
    TITLE "0:"
    INDEX 01 03:14:57
  TRACK 86 AUDIO
    TITLE "5:cjc128_2119"
    INDEX 01 03:19:39
  TRACK 87 AUDIO
    TITLE "0:"
    INDEX 01 03:23:48
  TRACK 88 AUDIO
    TITLE "6:cjc128_2120"
    INDEX 01 03:24:18
  TRACK 89 AUDIO
    TITLE "0:"
    INDEX 01 03:26:17
  TRACK 90 AUDIO
    TITLE "4:cjc128_2121"
    INDEX 01 03:27:03
  TRACK 91 AUDIO
    TITLE "0:"
    INDEX 01 03:30:03
  TRACK 92 AUDIO
    TITLE "5:cjc128_2122"
    INDEX 01 03:33:11
  TRACK 93 AUDIO
    TITLE "0:"
    INDEX 01 03:35:51
  TRACK 94 AUDIO
    TITLE "6:cjc128_2123"
    INDEX 01 03:36:35
  TRACK 95 AUDIO
    TITLE "0:"
    INDEX 01 03:38:48
  TRACK 96 AUDIO
    TITLE "4:cjc128_2124"
    INDEX 01 03:39:20
  TRACK 97 AUDIO
    TITLE "0:"
    INDEX 01 03:42:34
  TRACK 98 AUDIO
    TITLE "5:cjc128_2125"
    INDEX 01 03:46:18
  TRACK 99 AUDIO
    TITLE "0:"
    INDEX 01 03:49:30
  TRACK 100 AUDIO
    TITLE "6:cjc128_2126"
    INDEX 01 03:50:06
  TRACK 101 AUDIO
    TITLE "0:"
    INDEX 01 03:51:70
  TRACK 102 AUDIO
    TITLE "4:cjc128_2127"
    INDEX 01 03:52:42
  TRACK 103 AUDIO
    TITLE "0:"
    INDEX 01 03:56:16
  TRACK 104 AUDIO
    TITLE "5:cjc128_2128"
    INDEX 01 03:59:74
  TRACK 105 AUDIO
    TITLE "0:"
    INDEX 01 04:03:18
  TRACK 106 AUDIO
    TITLE "6:cjc128_2129"
    INDEX 01 04:03:67
  TRACK 107 AUDIO
    TITLE "0:"
    INDEX 01 04:05:66
  TRACK 108 AUDIO
    TITLE "4:cjc128_2130"
    INDEX 01 04:06:38
  TRACK 109 AUDIO
    TITLE "0:"
    INDEX 01 04:11:57
  TRACK 110 AUDIO
    TITLE "5:cjc128_2131"
    INDEX 01 04:15:61
  TRACK 111 AUDIO
    TITLE "0:"
    INDEX 01 04:19:27
  TRACK 112 AUDIO
    TITLE "6:cjc128_2132"
    INDEX 01 04:20:03
  TRACK 113 AUDIO
    TITLE "0:"
    INDEX 01 04:21:36
  TRACK 114 AUDIO
    TITLE "4:cjc128_2133"
    INDEX 01 04:22:10
  TRACK 115 AUDIO
    TITLE "0:"
    INDEX 01 04:25:57
  TRACK 116 AUDIO
    TITLE "5:cjc128_2134"
    INDEX 01 04:28:71
  TRACK 117 AUDIO
    TITLE "0:"
    INDEX 01 04:31:58
  TRACK 118 AUDIO
    TITLE "6:cjc128_2135"
    INDEX 01 04:32:30
  TRACK 119 AUDIO
    TITLE "0:"
    INDEX 01 04:34:21
  TRACK 120 AUDIO
    TITLE "4:cjc128_2136"
    INDEX 01 04:34:64
  TRACK 121 AUDIO
    TITLE "0:"
    INDEX 01 04:38:27
  TRACK 122 AUDIO
    TITLE "5:cjc128_2137"
    INDEX 01 04:41:07
  TRACK 123 AUDIO
    TITLE "0:"
    INDEX 01 04:43:28
  TRACK 124 AUDIO
    TITLE "6:cjc128_2138"
    INDEX 01 04:44:04
  TRACK 125 AUDIO
    TITLE "0:"
    INDEX 01 04:45:70
  TRACK 126 AUDIO
    TITLE "4:cjc128_2139"
    INDEX 01 04:46:46
  TRACK 127 AUDIO
    TITLE "0:"
    INDEX 01 04:50:00
  TRACK 128 AUDIO
    TITLE "5:cjc128_2140"
    INDEX 01 04:54:24
  TRACK 129 AUDIO
    TITLE "0:"
    INDEX 01 04:58:10
  TRACK 130 AUDIO
    TITLE "6:cjc128_2141"
    INDEX 01 04:58:57
  TRACK 131 AUDIO
    TITLE "0:"
    INDEX 01 05:00:46
  TRACK 132 AUDIO
    TITLE "4:cjc128_2142"
    INDEX 01 05:01:30
  TRACK 133 AUDIO
    TITLE "0:"
    INDEX 01 05:04:73
  TRACK 134 AUDIO
    TITLE "5:cjc128_2143"
    INDEX 01 05:09:00
  TRACK 135 AUDIO
    TITLE "0:"
    INDEX 01 05:12:43
  TRACK 136 AUDIO
    TITLE "6:cjc128_2144"
    INDEX 01 05:13:23
  TRACK 137 AUDIO
    TITLE "0:"
    INDEX 01 05:15:16
  TRACK 138 AUDIO
    TITLE "4:cjc128_2145"
    INDEX 01 05:15:73
  TRACK 139 AUDIO
    TITLE "0:"
    INDEX 01 05:21:19
  TRACK 140 AUDIO
    TITLE "5:cjc128_2146"
    INDEX 01 05:26:63
  TRACK 141 AUDIO
    TITLE "0:"
    INDEX 01 05:31:64
